<?xml version="1.0" encoding="UTF-8"?>
<svg width="411.57" height="603.76" version="1.1" viewBox="0 0 411.57044 603.76472" xmlns="http://www.w3.org/2000/svg" xmlns:xlink="http://www.w3.org/1999/xlink">
 <defs>
  <linearGradient id="f" x1="359.38" x2="216.21" y1="579.98" y2="325.72" gradientTransform="matrix(1.1494 0 0 1.1494 -101.1 -335.28)" gradientUnits="userSpaceOnUse" xlink:href="#a"/>
  <linearGradient id="g" x1="143.61" x2="372.45" y1="384.78" y2="567.5" gradientTransform="matrix(1.1494 0 0 1.1494 -101.1 -335.28)" gradientUnits="userSpaceOnUse" xlink:href="#a"/>
  <linearGradient id="e" x1="190.05" x2="341.58" y1="391.07" y2="526.51" gradientTransform="matrix(1.1494 0 0 1.1494 -101.1 -335.28)" gradientUnits="userSpaceOnUse" xlink:href="#a"/>
  <linearGradient id="a">
   <stop stop-color="#96754b" offset="0"/>
   <stop stop-color="#9c7b51" offset=".071429"/>
   <stop stop-color="#d0b185" offset=".14286"/>
   <stop stop-color="#c7a97c" offset=".21429"/>
   <stop stop-color="#c3a779" offset=".28571"/>
   <stop stop-color="#b3986b" offset=".35714"/>
   <stop stop-color="#b6996e" offset=".42857"/>
   <stop stop-color="#bc9d73" offset=".5"/>
   <stop stop-color="#a08259" offset=".57143"/>
   <stop stop-color="#ab8b62" offset=".64286"/>
   <stop stop-color="#ac8b64" offset=".71429"/>
   <stop stop-color="#bc9b74" offset=".78571"/>
   <stop stop-color="#ad8e66" offset=".85714"/>
   <stop stop-color="#8e7049" offset=".92857"/>
   <stop stop-color="#8c6e47" offset="1"/>
  </linearGradient>
 </defs>
 <g transform="matrix(.86603 .5 -.79268 1.373 542.64 -427.22)">
  <path d="m27.29 490.45v205l47.5-53.97 47.5 53.97v-205h-95z" fill="#f30000" fill-rule="evenodd"/>
  <path d="m32.04 496.75v184.5l42.75-48.573 42.75 48.573v-184.5h-85.5z" fill="none" stroke="#b20000" stroke-width=".79421"/>
 </g>
 <g transform="matrix(.86603 -.5 .79268 1.373 -358.83 -328.08)">
  <path d="m124.52 508.13v205l47.5-53.97 47.5 53.97v-205h-95z" fill="#4141f3" fill-rule="evenodd"/>
  <path d="m129.27 514.43v184.5l42.75-48.573 42.75 48.573v-184.5h-85.5z" fill="none" stroke="#0000b2" stroke-width=".79421"/>
 </g>
 <g stroke-linecap="round">
  <path d="m376.59 190.01-43.755-16.711 37.954-27.467-46.599-4.8508 29.52-36.374-46.285 7.435l19.19-42.803-42.8 19.187 7.37-46.285-36.37 29.524-4.8-46.603-27.46 37.956-16.76-43.806-16.72 43.806-27.46-37.956-4.85 46.603-36.37-29.524 7.4316 46.285-42.806-19.187 19.19 42.806-46.285-7.435 29.52 36.374-46.599 4.8508 37.955 27.467-43.809 16.711 43.809 16.762-37.955 27.466 46.599 4.7967-29.52 36.374 46.285-7.381-19.19 42.806 42.806-19.187-7.4316 46.285 36.374-29.523 4.8474 46.604 27.466-37.955 16.711 43.752 16.765-43.752 27.463 37.955 4.7968-46.604 36.374 29.523-7.3775-46.285 42.806 19.187-19.19-42.806 46.285 7.381-29.52-36.374 46.599-4.7967-37.954-27.466z" fill="url(#f)" stroke="url(#g)" stroke-miterlimit="8" stroke-width="3"/>
  <circle cx="205.79" cy="190.01" r="116.66" fill="none" stroke="url(#e)" stroke-dasharray="2.00000849, 6.00002549" stroke-linejoin="round" stroke-width="2"/>
 </g>
</svg>
