<?xml version="1.0" encoding="UTF-8"?>
<!DOCTYPE svg PUBLIC "-//W3C//DTD SVG 1.1//EN" "http://www.w3.org/Graphics/SVG/1.1/DTD/svg11.dtd">
<!-- Creator: CorelDRAW X7 -->
<svg xmlns="http://www.w3.org/2000/svg" xml:space="preserve" width="69.6884mm" height="63.8818mm" version="1.1" style="shape-rendering:geometricPrecision; text-rendering:geometricPrecision; image-rendering:optimizeQuality; fill-rule:evenodd; clip-rule:evenodd"
viewBox="0 0 14728 13501"
 xmlns:xlink="http://www.w3.org/1999/xlink">
 <defs>
  <style type="text/css">
   <![CDATA[
    .str0 {stroke:#2B2A29;stroke-width:42.2672}
    .fil0 {fill:#434242}
    .fil2 {fill:#434242}
    .fil3 {fill:#FDEC19}
    .fil1 {fill:#7690C9}
   ]]>
  </style>
 </defs>
 <g id="Capa_x0020_1">
  <metadata id="CorelCorpID_0Corel-Layer"/>
  <g id="_2621928790560">
   <g>
    <path class="fil0 str0" d="M6700 11537l224 0c0,335 -76,812 65,1085l373 720c18,35 4,77 -30,95l0 0c-34,17 -77,4 -94,-30l-356 -687 0 690c0,38 -31,69 -70,69l0 0c-38,0 -71,-31 -70,-69l21 -706 -320 703c-16,35 -60,47 -94,30l0 0c-34,-18 -48,-60 -30,-95 463,-893 381,-807 381,-1805z"/>
    <path class="fil0 str0" d="M7968 11537l224 0c0,335 -76,812 65,1085l373 720c18,35 4,77 -30,95l0 0c-34,17 -76,4 -94,-30l-356 -687 0 690c0,38 -31,69 -70,69l0 0c-38,0 -71,-31 -70,-69l21 -706 -320 703c-16,35 -60,47 -94,30l0 0c-34,-18 -48,-60 -30,-95 463,-893 381,-807 381,-1805z"/>
   </g>
   <path class="fil1" d="M1504 4620c-387,-19 -989,-46 -1338,-95 -607,-85 577,1213 1526,1923 445,3954 857,4119 3536,5189l2247 697 2246 -632c2706,-1142 3087,-1303 3550,-5438 866,-729 1852,-1817 1294,-1739 -284,40 -806,65 -1121,83 -455,-2478 -2522,-3454 -4512,-3711 -37,-292 -55,-690 -65,-859 -226,295 -649,347 -868,731 -105,184 -148,-362 -497,-769 -123,256 -293,656 -481,847 -293,18 -977,-415 -1178,-635 52,282 110,550 129,746 -1930,296 -4026,1179 -4468,3662z"/>
   <g>
    <circle class="fil2" cx="5443" cy="4739" r="376"/>
    <circle class="fil2" cx="9506" cy="4739" r="376"/>
   </g>
   <path class="fil3" d="M7366 5632c735,0 1331,-239 1331,497 0,167 -1329,2352 -1331,2352l0 0c-1,0 -1332,-2187 -1332,-2352 0,-736 596,-497 1332,-497z"/>
  </g>
 </g>
</svg>
