<?xml version="1.0" encoding="UTF-8"?>
<svg viewBox="0 0 564.6441 621.08966" xmlns="http://www.w3.org/2000/svg">
 <g transform="translate(-1064.6 -33.869)">
  <path transform="matrix(.14763 .98904 -.98904 .14763 1424.8 -520.46)" d="m1076.6 356.91-186.89 138.47-230.06-34.234-138.47-186.89 34.234-230.06 186.89-138.47 230.06 34.234 138.47 186.89z" fill="#fff" stroke="#000" stroke-linecap="square" stroke-linejoin="round" stroke-width="3"/>
  <path transform="matrix(.1335 .89439 -.89439 .1335 1417.4 -440.39)" d="m1076.6 356.91-186.89 138.47-230.06-34.234-138.47-186.89 34.234-230.06 186.89-138.47 230.06 34.234 138.47 186.89z" fill="#f00"/>
  <g fill="#fff" font-family="Caracteres L1" font-size="40" letter-spacing="0" word-spacing="0">
   <path d="m1137.5 358.62v-0.1953c0-0.7161 0.7487-1.2044 2.2461-1.4648 11.523-3.7109 19.01-6.3802 22.461-8.0078 1.7578 2.4089 4.069 4.5899 6.9336 6.543 4.6223 2.7344 9.5703 4.3946 14.844 4.9805 5.5989 0.1302 9.082 3e-5 10.449-0.3906 6.4452-1.8229 10.417-3.6784 11.914-5.5664 1.4973-1.302 2.7994-4.4596 3.9063-9.4727 0.2603-1.9531-1e-4 -4.1341-0.7813-6.543-0.9766-1.6276-2.0183-2.9947-3.125-4.1016l-3.3203-2.5391-3.7109-1.6602c-20.638-6.4452-31.999-10.221-34.082-11.328-9.5703-3.8411-16.699-10.189-21.387-19.043-3.0599-5.9244-4.4271-13.118-4.1015-21.582 1.2369-10.547 5.5664-18.913 12.988-25.098 8.3333-6.0545 17.025-9.3423 26.074-9.8633h2.539c6.4453 2e-4 11.784 0.4884 16.016 1.4649 8.5937 2.409 15.299 5.7618 20.117 10.059 4.8177 3.9715 8.789 9.3751 11.914 16.211l-0.293 1.0742-20.117 9.668-0.9765-0.4883c-1.2371-3.9712-4.7201-7.1939-10.449-9.668-6.4454-2.4087-13.998-2.4738-22.656-0.1953-3.711 1.2371-6.3151 2.8321-7.8125 4.7852-0.5209 0.5209-1.2045 2.1486-2.0508 4.8828-0.1302 3.1902 0 5.0457 0.3907 5.5664 0.8463 2.2136 2.539 4.1993 5.0781 5.957l2.539 1.0742c18.49 5.4688 31.022 9.4402 37.598 11.914 5.664 2.6043 9.9934 5.4688 12.988 8.5938l5.4687 7.4219c4.0364 6.7058 6.1848 14.03 6.4453 21.973 0.065 0.5209 0.098 1.1394 0.098 1.8555-1e-4 2.5391-0.3907 5.9571-1.1719 10.254-1.6277 6.0547-3.5808 10.514-5.8594 13.379-3.9063 4.8177-6.7383 7.7149-8.496 8.6914-9.5704 6.5755-19.434 10.124-29.59 10.644h-8.8867c-6.6407-0.651-12.24-1.9531-16.797-3.9063-7.2917-3.3854-13.184-7.1615-17.676-11.328-3.7109-3.3854-6.9336-8.2356-9.6679-14.551z"/>
   <path d="m1332.7 244.56v27.539h-28.613v115.72h-26.562v-116.02h-30.566v-27.246z"/>
   <path d="m1402.9 242.9c15.755 2.409 27.409 11.719 34.961 27.93 6.4452 11.979 9.6678 26.693 9.668 44.141v1.7578c-2e-4 21.81-5.3061 40.365-15.918 55.664-7.5522 10.286-18.229 16.048-32.031 17.285-1.4323 0.1302-2.8321 0.1953-4.1992 0.1953-14.323 0-26.335-6.0547-36.035-18.164-10.026-16.146-15.104-32.715-15.234-49.707-0.065-1.4322-0.098-2.8645-0.098-4.2969 0-22.982 5.1107-41.992 15.332-57.031 6.8359-8.203 13.965-13.444 21.387-15.723 5.1432-1.6275 10.286-2.4413 15.43-2.4414 2.2786 2e-4 4.5246 0.1304 6.7383 0.3906zm-7.5196 121.97c7.552-0.3906 13.932-5.5664 19.141-15.527 3.776-6.6406 6.1523-16.406 7.129-29.297 0.1952-16.406-2.702-29.85-8.6915-40.332-4.8828-7.2916-10.286-11.361-16.211-12.207-7.8125 0.3907-14.323 5.5014-19.531 15.332-3.711 6.9011-6.1199 16.797-7.2266 29.688-0.1302 16.406 2.832 29.818 8.8867 40.234 4.8177 7.2917 10.319 11.328 16.504 12.109z"/>
   <path d="m1515.2 244.46c8.3333 0.9116 15.706 3.9064 22.119 8.9844s11.019 10.807 13.818 17.188c3.5156 6.8361 5.2734 14.16 5.2735 21.973-1e-4 3.6459-0.033 6.0222-0.098 7.1289-0.5209 8.9845-2.3764 16.471-5.5664 22.461s-6.6733 10.58-10.449 13.77c-8.2032 7.487-16.83 11.296-25.879 11.426h-27.148v40.137h-26.758v-143.07zm-27.539 74.414h22.07c3.3853-0.3906 6.1848-1.2369 8.3984-2.5391 5.9895-3.5807 9.5703-9.7981 10.742-18.652 0.1953-8.0077-1.4324-14.095-4.8828-18.262s-8.0404-6.5428-13.77-7.1289h-22.559z"/>
  </g>
 </g>
</svg>
