<?xml version="1.0" encoding="UTF-8"?>
<svg viewBox="0 0 720 720" xmlns="http://www.w3.org/2000/svg">
 <g transform="matrix(2.0048 0 0 2.0048 -391.43 7.5506)">
  <path d="m374.82 18.68c-43.392 0-78.594 35.17-78.594 78.562s35.201 78.562 78.594 78.562c-42.733-7.535-71.285-48.267-63.75-91 6.7258-38.144 39.933-64.974 77.375-64.938-4.4294-0.77519-8.9736-1.1875-13.625-1.1875z" fill="#eec73e"/>
  <path d="m402.11 21.067c-42.733-7.535-83.507 20.988-91.042 63.721s21.024 83.482 63.758 91.017c-40.776-14.841-61.821-59.912-46.98-100.69 13.247-36.397 50.608-57.052 87.476-50.515-4.2275-1.5326-8.631-2.7277-13.212-3.5354z" fill="#f0a513"/>
  <path d="m428.56 28.156c-40.776-14.841-85.883 6.1684-100.72 46.944s6.2085 85.864 46.984 100.71c-37.579-21.696-50.478-69.737-28.782-107.32 19.366-33.543 59.747-47.397 94.919-34.557-3.8971-2.2434-8.0263-4.185-12.397-5.7759z" fill="#fb8b00"/>
  <path d="m453.39 39.731c-37.579-21.696-85.649-8.8387-107.35 28.74s-8.796 85.638 28.783 107.33c-33.24-27.892-37.601-77.443-9.7091-110.68 24.897-29.671 67.069-36.302 99.477-17.55-3.4484-2.886-7.1776-5.5152-11.206-7.8409z" fill="#f44800"/>
  <path d="m475.82 55.44c-33.24-27.892-82.813-23.577-110.71 9.6633s-23.533 82.809 9.7073 110.7c-27.892-33.24-23.582-82.796 9.6583-110.69 29.671-24.897 72.354-24.104 101.01-0.00932-2.8948-3.441-6.1108-6.6778-9.674-9.6677z" fill="#ff9"/>
  <path d="m495.19 74.807c-27.892-33.24-77.461-37.599-110.7-9.7073s-37.555 77.465-9.6633 110.71c-21.696-37.579-8.8466-85.633 28.732-107.33 33.543-19.366 75.441-11.174 99.481 17.532-2.2533-3.8914-4.8584-7.6375-7.8483-11.201z" fill="#ff0"/>
  <path d="m510.9 97.243c-21.696-37.579-69.755-50.479-107.33-28.783s-50.436 69.767-28.74 107.35c-14.841-40.776 6.1578-85.868 46.933-100.71 36.397-13.247 76.235 2.0959 94.925 34.54-1.5434-4.2236-3.4584-8.3651-5.7841-12.393z" fill="#fdca01"/>
  <path d="m522.47 122.07c-14.841-40.776-59.93-61.825-100.71-46.984s-61.785 59.948-46.944 100.72c-7.535-42.733 20.975-83.494 63.708-91.029 38.144-6.7258 74.713 15.302 87.485 50.499-0.7865-4.4274-1.9533-8.8386-3.5441-13.209z" fill="#986601"/>
  <path d="m529.56 148.52c-7.535-42.733-48.283-71.293-91.017-63.758s-71.256 48.309-63.721 91.042c0-43.392 35.155-78.583 78.547-78.583 38.732 2.4e-13 70.921 28.043 77.387 64.923-0.00574-4.4967-0.38879-9.0435-1.1965-13.624z" fill="#f44800"/>
  <path d="m531.95 175.81c-5e-13 -43.392-35.17-78.594-78.562-78.594s-78.562 35.201-78.562 78.594c7.535-42.733 48.267-71.285 91-63.75 38.144 6.7258 64.974 39.933 64.938 77.375 0.77519-4.4294 1.1875-8.9736 1.1875-13.625z" fill="#fd3301"/>
  <path d="m529.56 203.09c7.535-42.733-20.988-83.507-63.721-91.042s-83.482 21.024-91.017 63.758c14.841-40.776 59.912-61.821 100.69-46.98 36.397 13.247 57.052 50.608 50.515 87.476 1.5326-4.2275 2.7277-8.631 3.5354-13.212z" fill="#d40000"/>
  <path d="m522.47 229.55c14.841-40.776-6.1684-85.883-46.944-100.72s-85.864 6.2085-100.71 46.984c21.696-37.579 69.737-50.478 107.32-28.782 33.543 19.366 47.397 59.747 34.557 94.919 2.2434-3.8971 4.185-8.0263 5.7759-12.397z" fill="#980101"/>
  <path d="m510.9 254.37c21.696-37.579 8.8387-85.649-28.74-107.35s-85.638-8.796-107.33 28.783c27.892-33.24 77.443-37.601 110.68-9.7091 29.671 24.897 36.302 67.069 17.55 99.477 2.886-3.4484 5.5152-7.1776 7.8409-11.206z" fill="#fdd99b"/>
  <path d="m495.19 276.8c27.892-33.24 23.577-82.813-9.6633-110.71s-82.809-23.533-110.7 9.7073c33.24-27.892 82.796-23.582 110.69 9.6583 24.897 29.671 24.104 72.354 0.00932 101.01 3.441-2.8948 6.6778-6.1108 9.6677-9.674z" fill="#d9bb7a"/>
  <path d="m475.82 296.17c33.24-27.892 37.599-77.461 9.7073-110.7s-77.465-37.555-110.71-9.6633c37.579-21.696 85.633-8.8466 107.33 28.732 19.366 33.543 11.174 75.441-17.532 99.481 3.8914-2.2533 7.6375-4.8584 11.201-7.8483z" fill="#816647"/>
  <path d="m453.39 311.88c37.579-21.696 50.479-69.755 28.783-107.33s-69.767-50.436-107.35-28.74c40.776-14.841 85.868 6.1578 100.71 46.933 13.247 36.397-2.0959 76.235-34.54 94.925 4.2236-1.5434 8.3651-3.4584 12.393-5.7841z" fill="#565248"/>
  <path d="m428.56 323.45c40.776-14.841 61.825-59.93 46.984-100.71s-59.948-61.785-100.72-46.944c42.733-7.535 83.494 20.975 91.029 63.708 6.7258 38.144-15.302 74.713-50.499 87.485 4.4274-0.7865 8.8386-1.9533 13.209-3.5441z" fill="#ace"/>
  <path d="m402.11 330.54c42.733-7.535 71.293-48.283 63.758-91.017s-48.309-71.256-91.042-63.721c43.392-1e-13 78.583 35.155 78.583 78.547-4e-13 38.732-28.043 70.921-64.923 77.387 4.4967-0.00574 9.0435-0.38879 13.624-1.1965z" fill="#69c"/>
  <path d="m374.82 332.93c43.392-8e-13 78.594-35.17 78.594-78.562s-35.201-78.562-78.594-78.562c42.733 7.535 71.285 48.267 63.75 91-6.7258 38.144-39.933 64.974-77.375 64.938 4.4294 0.77519 8.9736 1.1875 13.625 1.1875z" fill="#369"/>
  <path d="m347.54 330.54c42.733 7.535 83.507-20.988 91.042-63.721s-21.024-83.482-63.758-91.017c40.776 14.841 61.821 59.912 46.98 100.69-13.247 36.397-50.608 57.052-87.476 50.515 4.2275 1.5326 8.631 2.7277 13.212 3.5354z" fill="#036"/>
  <path d="m321.08 323.45c40.776 14.841 85.883-6.1684 100.72-46.944s-6.2085-85.864-46.984-100.71c37.579 21.696 50.478 69.737 28.782 107.32-19.366 33.543-59.747 47.397-94.919 34.557 3.8971 2.2434 8.0263 4.185 12.397 5.7759z" fill="#b3defd"/>
  <path d="m296.26 311.88c37.579 21.696 85.649 8.8387 107.35-28.74s8.796-85.638-28.783-107.33c33.24 27.892 37.601 77.443 9.7091 110.68-24.897 29.671-67.069 36.302-99.477 17.55 3.4484 2.886 7.1776 5.5152 11.206 7.8409z" fill="#0197fd"/>
  <path d="m273.82 296.17c33.24 27.892 82.813 23.577 110.71-9.6633s23.533-82.809-9.7073-110.7c27.892 33.24 23.582 82.796-9.6583 110.69-29.671 24.897-72.354 24.104-101.01 0.00932 2.8948 3.441 6.1108 6.6778 9.674 9.6677z" fill="#0169c9"/>
  <path d="m254.46 276.8c27.892 33.24 77.461 37.599 110.7 9.7073s37.555-77.465 9.6633-110.71c21.696 37.579 8.8466 85.633-28.732 107.33-33.543 19.366-75.441 11.174-99.481-17.532 2.2533 3.8914 4.8584 7.6375 7.8483 11.201z" fill="#013397"/>
  <path d="m238.75 254.37c21.696 37.579 69.755 50.479 107.33 28.783s50.436-69.767 28.74-107.35c14.841 40.776-6.1578 85.868-46.933 100.71-36.397 13.247-76.235-2.0959-94.925-34.54 1.5434 4.2236 3.4584 8.3651 5.7841 12.393z" fill="#cf9"/>
  <path d="m227.17 229.55c14.841 40.776 59.93 61.825 100.71 46.984s61.785-59.948 46.944-100.72c7.535 42.733-20.975 83.494-63.708 91.029-38.144 6.7258-74.713-15.302-87.485-50.499 0.7865 4.4274 1.9533 8.8386 3.5441 13.209z" fill="#98fc66"/>
  <path d="m220.08 203.09c7.535 42.733 48.283 71.293 91.017 63.758s71.256-48.309 63.721-91.042c3e-13 43.392-35.155 78.583-78.547 78.583-38.732-3e-13 -70.921-28.043-77.387-64.923 0.00574 4.4967 0.38879 9.0435 1.1965 13.624z" fill="#390"/>
  <path d="m217.7 175.81c6e-13 43.392 35.17 78.594 78.562 78.594s78.562-35.201 78.562-78.594c-7.535 42.733-48.267 71.285-91 63.75-38.144-6.7258-64.974-39.933-64.938-77.375-0.77519 4.4294-1.1875 8.9736-1.1875 13.625z" fill="#015a01"/>
  <path d="m220.08 148.52c-7.535 42.733 20.988 83.507 63.721 91.042s83.482-21.024 91.017-63.758c-14.841 40.776-59.912 61.821-100.69 46.98-36.397-13.247-57.052-50.608-50.515-87.476-1.5326 4.2275-2.7277 8.631-3.5354 13.212z" fill="#002b3d"/>
  <path d="m227.17 122.07c-14.841 40.776 6.1684 85.883 46.944 100.72s85.864-6.2085 100.71-46.984c-21.696 37.579-69.737 50.478-107.32 28.782-33.543-19.366-47.397-59.747-34.557-94.919-2.2434 3.8971-4.185 8.0263-5.7759 12.397z" fill="#ff9bff"/>
  <path d="m238.75 97.243c-21.696 37.579-8.8387 85.649 28.74 107.35s85.638 8.796 107.33-28.783c-27.892 33.24-77.443 37.601-110.68 9.7091-29.671-24.897-36.302-67.069-17.55-99.477-2.886 3.4484-5.5152 7.1776-7.8409 11.206z" fill="#f0f"/>
  <path d="m254.46 74.807c-27.892 33.24-23.577 82.813 9.6633 110.71s82.809 23.533 110.7-9.7073c-33.24 27.892-82.796 23.582-110.69-9.6583-24.897-29.671-24.104-72.354-0.00932-101.01-3.441 2.8948-6.6778 6.1108-9.6677 9.674z" fill="#60c"/>
  <path d="m273.82 55.44c-33.24 27.892-37.599 77.461-9.7073 110.7s77.465 37.555 110.71 9.6633c-37.579 21.696-85.633 8.8466-107.33-28.732-19.366-33.543-11.174-75.441 17.532-99.481-3.8914 2.2533-7.6375 4.8584-11.201 7.8483z" fill="#eee"/>
  <path d="m296.26 39.731c-37.579 21.696-50.479 69.755-28.783 107.33s69.767 50.436 107.35 28.74c-40.776 14.841-85.868-6.1578-100.71-46.933-13.247-36.397 2.0959-76.235 34.54-94.925-4.2236 1.5434-8.3651 3.4584-12.393 5.7841z" fill="#cccccf"/>
  <path d="m321.08 28.156c-40.776 14.841-61.825 59.93-46.984 100.71s59.948 61.785 100.72 46.944c-42.733 7.535-83.494-20.975-91.029-63.708-6.7258-38.144 15.302-74.713 50.499-87.485-4.4274 0.7865-8.8386 1.9533-13.209 3.5441z" fill="#aaa"/>
  <path d="m347.54 21.067c-42.733 7.535-71.293 48.283-63.758 91.017s48.309 71.256 91.042 63.721c-43.392 1e-13 -78.583-35.155-78.583-78.547 3e-13 -38.732 28.043-70.921 64.923-77.387-4.4967 0.00574-9.0435 0.38879-13.624 1.1965z" fill="#888"/>
 </g>
</svg>
